# xmcd CD database file
#
# Track frame offsets:
#	150
#	21565
#	43072
#	67905
#	84789
#	113969
#	139355
#	158589
#	179436
#	200529
#	223165
#	250847
#	272616
#	290537
#	309548
#
# Disc length: 4452 seconds
#
# Revision: 3
# Processed by: cddbd v1.5PL3 Copyright (c) Steve Scherf et al.
# Submitted via: NeoAudio 9.9.9
#
DISCID=de11620f
DTITLE=George Michael - Ladies and Gentlemen - The Best Of George Michael - For The Feet
DYEAR=1998
DGENRE=New Age
TTITLE0=Outside
TTITLE1=As 
TTITLE2=Fastlove
TTITLE3=Too Funky
TTITLE4=Freedom 90
TTITLE5=Star People 97
TTITLE6=Killer - Papa Was a Rolling Stone
TTITLE7=I Want Your Sex (part II)
TTITLE8=The Strangest Thing 97
TTITLE9=Fantasy
TTITLE10=Spining the Wheel
TTITLE11=Waiting for That Day
TTITLE12=I Knew You Were Waiting (for Me)
TTITLE13=Faith
TTITLE14=Somebody to Love
EXTD=1998\nEPIC\n\nOriginal YEAR: 1998
EXTT0=
EXTT1=
EXTT2=
EXTT3=
EXTT4=
EXTT5=
EXTT6=
EXTT7=
EXTT8=
EXTT9=
EXTT10=
EXTT11=
EXTT12=
EXTT13=
EXTT14=
PLAYORDER=
